<?xml version="1.0" standalone="no"?>
<!DOCTYPE svg PUBLIC "-//W3C//DTD SVG 20010904//EN"
 "http://www.w3.org/TR/2001/REC-SVG-20010904/DTD/svg10.dtd">
<svg version="1.0" xmlns="http://www.w3.org/2000/svg"
 width="109.000000pt" height="109.000000pt" viewBox="0 0 109.000000 109.000000"
 preserveAspectRatio="xMidYMid meet">
<metadata>
Created by potrace 1.11, written by Peter Selinger 2001-2013
</metadata>
<g transform="translate(0.000000,109.000000) scale(0.100000,-0.100000)"
fill="#000000" stroke="none">
<path d="M509 1056 c-2 -2 -27 -7 -54 -9 -28 -3 -62 -10 -75 -15 -14 -5 -27
-9 -30 -9 -3 0 -16 -6 -30 -13 -14 -8 -29 -13 -33 -12 -4 1 -10 -5 -13 -13 -4
-8 -13 -15 -20 -15 -8 0 -28 -13 -44 -30 -16 -16 -33 -30 -39 -30 -5 0 -15
-10 -24 -22 -8 -13 -25 -33 -36 -45 -12 -13 -19 -23 -16 -23 3 0 -2 -11 -11
-25 -9 -14 -12 -25 -8 -25 5 0 3 -4 -5 -9 -8 -5 -16 -15 -17 -23 -2 -7 -11
-42 -21 -78 -17 -60 -22 -155 -10 -190 2 -8 10 -35 17 -60 12 -46 43 -109 70
-144 31 -39 110 -116 120 -116 5 0 10 -5 10 -11 0 -5 4 -7 10 -4 5 3 10 1 10
-4 0 -6 7 -11 15 -11 8 0 15 -4 15 -10 0 -5 9 -10 20 -10 11 0 20 -4 20 -8 0
-10 118 -37 195 -44 21 -1 131 15 145 22 8 4 21 5 28 3 6 -3 12 1 12 7 0 6 6
10 12 8 7 -3 19 1 26 9 8 7 18 11 23 8 5 -4 9 -1 9 4 0 6 5 11 11 11 36 0 189
153 189 189 0 6 4 11 10 11 5 0 9 3 8 8 -1 4 3 17 10 28 6 12 8 24 5 28 -3 3
-1 6 5 6 7 0 12 11 12 24 0 14 4 27 10 31 6 3 6 15 0 30 -5 14 -5 27 0 30 21
13 -2 171 -35 237 -13 25 -21 49 -18 52 4 3 1 6 -5 6 -7 0 -12 7 -12 15 0 7
-8 19 -17 24 -10 6 -14 11 -9 11 8 0 -59 66 -109 108 -24 20 -111 62 -129 62
-9 0 -16 4 -16 9 0 6 -8 10 -17 9 -21 0 -73 11 -84 18 -4 2 -10 0 -14 -5 -4
-7 -15 -7 -31 -1 -29 11 -29 11 -35 6z"/>
</g>
</svg>
